PathFileType	4	(X/Y/Z)	/Users/itak/Documents/Research/Walk-IL/dataset/trc/00161_00008.trc
DataRate	CameraRate	NumFrames	NumMarkers	Units	OrigDataRate	OrigDataStartFrame	OrigNumFrames
100.000000	100.000000	4	53	mm	100.000000	0	570
Frame#	Time	RPSI			LPSI			L3			STRN			T10			C7			CLAV			RBAK			LBAK			LSHO			LUPA			LAEL			LAOL			LWTS			LWPS			LFRA			LIFD			LHPS			LHTS			RSHO			RUPA			RAEL			RAOL			RWTS			RWPS			RFRA			RIFD			RHTS			RHPS			RBHD			LFHD			RFHD			LBHD			LHIP			RHIP			RASI			LASI			LKNE			LTHI			LANK			LTIP			LTOE			LMT1			LMT5			LHEE			RKNE			RANK			RTIP			RTOE			RMT1			RMT5			RHEE			RTHI			
		X1	Y1	Z1	X2	Y2	Z2	X3	Y3	Z3	X4	Y4	Z4	X5	Y5	Z5	X6	Y6	Z6	X7	Y7	Z7	X8	Y8	Z8	X9	Y9	Z9	X10	Y10	Z10	X11	Y11	Z11	X12	Y12	Z12	X13	Y13	Z13	X14	Y14	Z14	X15	Y15	Z15	X16	Y16	Z16	X17	Y17	Z17	X18	Y18	Z18	X19	Y19	Z19	X20	Y20	Z20	X21	Y21	Z21	X22	Y22	Z22	X23	Y23	Z23	X24	Y24	Z24	X25	Y25	Z25	X26	Y26	Z26	X27	Y27	Z27	X28	Y28	Z28	X29	Y29	Z29	X30	Y30	Z30	X31	Y31	Z31	X32	Y32	Z32	X33	Y33	Z33	X34	Y34	Z34	X35	Y35	Z35	X36	Y36	Z36	X37	Y37	Z37	X38	Y38	Z38	X39	Y39	Z39	X40	Y40	Z40	X41	Y41	Z41	X42	Y42	Z42	X43	Y43	Z43	X44	Y44	Z44	X45	Y45	Z45	X46	Y46	Z46	X47	Y47	Z47	X48	Y48	Z48	X49	Y49	Z49	X50	Y50	Z50	X51	Y51	Z51	X52	Y52	Z52	X53	Y53	Z53	

1	0	-1930.111328125	1051.691284179688	-13.94731044769287	-1910.64306640625	1050.763427734375	-136.2026672363281	-1920.091430664062	1088.724243164062	-72.78108215332031	-1660.49560546875	1297.595947265625	-48.280029296875	-1952.333129882812	1245.182739257812	-82.23342132568359	-1888.973388671875	1515.51171875	-88.80324554443359	-1687.751342773438	1411.194091796875	-61.44026947021484	-1965.974975585938	1340.26708984375	14.73956775665283	-1883.282592773438	1488.50146484375	-190.8184509277344	-1796.588623046875	1475.1982421875	-259.6703491210938	-1813.267578125	1341.2734375	-334.4394836425781	-1779.997436523438	1121.534301757812	-343.7373046875	-1844.684326171875	1106.760864257812	-286.2979736328125	-1672.023071289062	896.1239624023438	-270.1731262207031	-1736.58203125	871.7060546875	-333.5783996582031	-1757.113647460938	1011.853820800781	-348.4272155761719	-1674.119262695312	708.704833984375	-238.2503814697266	-1720.058837890625	801.9349365234375	-319.1083068847656	-1658.749755859375	813.5592651367188	-281.6477355957031	-1844.991577148438	1495.278930664062	99.25675201416016	-1868.30078125	1428.214721679688	168.3915252685547	-1868.46484375	1136.91943359375	222.9125061035156	-1877.1181640625	1131.49853515625	124.9129943847656	-1719.292114257812	915.1347045898438	188.7713165283203	-1790.445678710938	894.9813842773438	240.9952545166016	-1838.31494140625	1064.850341796875	237.9998931884766	-1701.069580078125	728.52685546875	161.1863098144531	-1688.874267578125	821.77197265625	194.1636962890625	-1758.02197265625	811.8289184570312	233.9606781005859	-1859.491088867188	1671.809448242188	-12.69775867462158	-1683.23193359375	1736.8154296875	-123.2623291015625	-1697.386596679688	1735.914916992188	4.95702600479126	-1851.11572265625	1679.390747070312	-150.4657897949219	-1791.077514648438	988.1504516601562	-239.8347625732422	-1795.590209960938	1013.234741210938	122.0783081054688	-1701.52294921875	1041.347900390625	83.97882843017578	-1675.362915039062	1026.164672851562	-172.4903717041016	-1797.3955078125	495.996337890625	-212.0152587890625	-1781.160888671875	638.0462036132812	-235.0279541015625	-1894.905639648438	43.43683624267578	-233.2629089355469	-1845.736450195312	277.6769714355469	-235.8571014404297	-1674.737182617188	39.09184646606445	-225.8216705322266	-1721.158813476562	36.88463592529297	-173.220458984375	-1789.930297851562	35.02280807495117	-280.7600402832031	-1939.773803710938	40.42166519165039	-158.9238739013672	-1796.248901367188	515.8359985351562	123.365364074707	-1896.586303710938	39.16509246826172	129.8437347412109	-1790.05078125	398.2134399414062	110.9630661010742	-1671.066772460938	38.0949821472168	124.7833404541016	-1720.548217773438	37.02420043945312	71.55492401123047	-1790.135375976562	33.67989730834961	178.9273376464844	-1938.5322265625	38.81155014038086	56.30177307128906	nan	nan	nan	
2	0.01	-1930.1044921875	1051.698120117188	-13.90922164916992	-1910.65625	1050.765869140625	-136.1728820800781	-1920.099731445312	1088.733642578125	-72.75070953369141	-1660.512329101562	1297.576293945312	-48.27462768554688	-1952.327514648438	1245.185302734375	-82.20204162597656	-1888.9423828125	1515.500244140625	-88.77433776855469	-1687.757080078125	1411.18603515625	-61.44452667236328	-1965.958374023438	1340.283203125	14.79031467437744	-1883.27685546875	1488.491821289062	-190.8117828369141	-1796.579223632812	1475.17236328125	-259.6560974121094	-1813.242065429688	1341.250732421875	-334.4162292480469	-1779.919921875	1121.533325195312	-343.7454833984375	-1844.635620117188	1106.7392578125	-286.376220703125	-1672.2578125	895.9740600585938	-270.1795349121094	-1736.46630859375	871.7102661132812	-333.6970520019531	-1757.030883789062	1011.862731933594	-348.450439453125	-1674.306762695312	708.54541015625	-238.5140991210938	-1720.028198242188	801.9215087890625	-319.3400573730469	-1658.82275390625	813.4909057617188	-281.7593994140625	-1844.957885742188	1495.295043945312	99.27940368652344	-1868.26220703125	1428.213989257812	168.4200744628906	-1868.4189453125	1136.93603515625	222.9422454833984	-1877.10546875	1131.521606445312	124.9422454833984	-1719.220336914062	915.162109375	188.7582397460938	-1790.381958007812	894.998291015625	240.9878234863281	-1838.2666015625	1064.862670898438	238.0109710693359	-1700.988403320312	728.5301513671875	161.1450653076172	-1688.82421875	821.7955932617188	194.1556243896484	-1757.974365234375	811.8438720703125	233.9355621337891	-1859.426147460938	1671.846801757812	-12.697340965271	-1683.219604492188	1736.796752929688	-123.3657455444336	-1697.305786132812	1735.9140625	4.851626396179199	-1851.099365234375	1679.378540039062	-150.4856262207031	-1791.094848632812	988.144775390625	-239.801025390625	-1795.605346679688	1013.224426269531	122.0859069824219	-1701.505981445312	1041.344482421875	83.99391174316406	-1675.367797851562	1026.162963867188	-172.4857025146484	-1797.410766601562	495.9964904785156	-212.0117340087891	-1781.17529296875	638.046142578125	-235.0194702148438	-1894.90576171875	43.43662261962891	-233.2631530761719	-1845.73095703125	277.6731872558594	-235.8555603027344	-1674.737426757812	39.09295654296875	-225.8278656005859	-1721.157592773438	36.88630294799805	-173.2218627929688	-1789.927001953125	35.0225830078125	-280.7534484863281	-1939.775268554688	40.42375183105469	-158.9242553710938	-1796.20703125	515.8294677734375	123.3806076049805	-1896.597778320312	39.17073440551758	129.8428192138672	-1790.038452148438	398.2137756347656	110.9770660400391	-1671.06396484375	38.09260177612305	124.7858200073242	-1720.5517578125	37.03396224975586	71.55361175537109	-1790.134643554688	33.68423843383789	178.9293823242188	-1938.531982421875	38.80981063842773	56.30277252197266	nan	nan	nan	
3	0.02	-1930.095825195312	1051.702880859375	-13.86011600494385	-1910.672241210938	1050.767700195312	-136.1341857910156	-1920.108764648438	1088.74462890625	-72.71192169189453	-1660.533447265625	1297.550415039062	-48.26584243774414	-1952.319946289062	1245.188720703125	-82.16239166259766	-1888.889526367188	1515.480590820312	-88.73087310791016	-1687.762084960938	1411.174194335938	-61.44735717773438	-1965.937866210938	1340.304565429688	14.84889698028564	-1883.2666015625	1488.4814453125	-190.8029327392578	-1796.563354492188	1475.140869140625	-259.6372680664062	-1813.205078125	1341.223022460938	-334.3903503417969	-1779.829223632812	1121.531494140625	-343.7584228515625	-1844.584106445312	1106.714599609375	-286.468505859375	-1672.552734375	895.7904663085938	-270.224609375	-1736.37109375	871.7090454101562	-333.8507080078125	-1756.947143554688	1011.869506835938	-348.4896850585938	-1674.505859375	708.3703002929688	-238.8439483642578	-1720.014282226562	801.8982543945312	-319.6264343261719	-1658.912353515625	813.410400390625	-281.9203796386719	-1844.916259765625	1495.316528320312	99.30604553222656	-1868.217529296875	1428.215454101562	168.4526519775391	-1868.361206054688	1136.957641601562	222.9794311523438	-1877.085815429688	1131.547241210938	124.9790420532227	-1719.130737304688	915.1944580078125	188.7438812255859	-1790.301513671875	895.0219116210938	240.9795837402344	-1838.207275390625	1064.88037109375	238.0236511230469	-1700.88720703125	728.541015625	161.0992889404297	-1688.758056640625	821.8250732421875	194.1457672119141	-1757.913818359375	811.8654174804688	233.9068298339844	-1859.346069335938	1671.892578125	-12.70311641693115	-1683.204223632812	1736.772094726562	-123.5024261474609	-1697.20703125	1735.915771484375	4.721003532409668	-1851.073974609375	1679.357055664062	-150.5107421875	-1791.118408203125	988.1376953125	-239.7614440917969	-1795.622436523438	1013.214721679688	122.0954513549805	-1701.484985351562	1041.340698242188	84.01380157470703	-1675.37646484375	1026.161010742188	-172.4783782958984	-1797.4267578125	495.9973754882812	-212.0069122314453	-1781.193603515625	638.04736328125	-235.009521484375	-1894.905883789062	43.43627548217773	-233.2635040283203	-1845.725341796875	277.6680908203125	-235.8522491455078	-1674.737915039062	39.09402465820312	-225.8336639404297	-1721.156860351562	36.88785552978516	-173.2226409912109	-1789.925415039062	35.0230598449707	-280.7481079101562	-1939.777221679688	40.42653656005859	-158.9249420166016	-1796.160888671875	515.82275390625	123.3977966308594	-1896.606811523438	39.17164611816406	129.8429870605469	-1790.022216796875	398.2106323242188	110.9930877685547	-1671.060668945312	38.09017562866211	124.7886352539062	-1720.555541992188	37.04408264160156	71.55226898193359	-1790.133178710938	33.68835830688477	178.9345092773438	-1938.531616210938	38.80672073364258	56.30455017089844	nan	nan	nan	
4	0.03	-1930.0849609375	1051.703979492188	-13.80157470703125	-1910.689575195312	1050.7685546875	-136.0879211425781	-1920.117553710938	1088.75634765625	-72.666259765625	-1660.557983398438	1297.518798828125	-48.25315856933594	-1952.310180664062	1245.19287109375	-82.11639404296875	-1888.811401367188	1515.451782226562	-88.67217254638672	-1687.765014648438	1411.15771484375	-61.44780349731445	-1965.914916992188	1340.330444335938	14.91019535064697	-1883.2509765625	1488.471313476562	-190.7920684814453	-1796.539672851562	1475.10546875	-259.6142272949219	-1813.156860351562	1341.1923828125	-334.3644714355469	-1779.734130859375	1121.528198242188	-343.777099609375	-1844.537109375	1106.689208984375	-286.568115234375	-1672.89111328125	895.58447265625	-270.3215637207031	-1736.324584960938	871.6990356445312	-334.0349731445312	-1756.876342773438	1011.871520996094	-348.5479736328125	-1674.685302734375	708.1984252929688	-239.2203674316406	-1720.026733398438	801.86376953125	-319.952392578125	-1659.012939453125	813.3247680664062	-282.1316528320312	-1844.868286132812	1495.342895507812	99.33464813232422	-1868.170166015625	1428.220092773438	168.4866333007812	-1868.293823242188	1136.983276367188	223.0225219726562	-1877.058959960938	1131.57373046875	125.0218811035156	-1719.027465820312	915.2296142578125	188.7302856445312	-1790.207763671875	895.0523071289062	240.9714202880859	-1838.139770507812	1064.903442382812	238.0374145507812	-1700.763793945312	728.5632934570312	161.0553131103516	-1688.67724609375	821.8593139648438	194.135009765625	-1757.842651367188	811.893798828125	233.8770294189453	-1859.254272460938	1671.943969726562	-12.71757316589355	-1683.185302734375	1736.741577148438	-123.6699371337891	-1697.095336914062	1735.921142578125	4.571231365203857	-1851.0390625	1679.324829101562	-150.5399932861328	-1791.146728515625	988.12939453125	-239.7187805175781	-1795.640258789062	1013.206726074219	122.1068344116211	-1701.461181640625	1041.336547851562	84.03799438476562	-1675.389282226562	1026.158813476562	-172.4681701660156	-1797.441040039062	495.9988403320312	-212.0003509521484	-1781.214477539062	638.0499877929688	-234.9981079101562	-1894.906005859375	43.4357795715332	-233.2639617919922	-1845.7216796875	277.6635437011719	-235.8467407226562	-1674.738647460938	39.09490966796875	-225.8385620117188	-1721.156616210938	36.88898468017578	-173.2226104736328	-1789.925537109375	35.02445983886719	-280.7444458007812	-1939.779296875	40.42972946166992	-158.9258270263672	-1796.114624023438	515.8170166015625	123.4161376953125	-1896.611450195312	39.1667594909668	129.8442993164062	-1790.002807617188	398.2034912109375	111.009635925293	-1671.057373046875	38.08815002441406	124.7913970947266	-1720.559326171875	37.05342864990234	71.55120849609375	-1790.132080078125	33.69175338745117	178.9427642822266	-1938.531005859375	38.8019905090332	56.30727005004883	nan	nan	nan	
